<svg version="1.2" xmlns="http://www.w3.org/2000/svg" viewBox="0 0 1439 1500" width="1439" height="1500">
	<title>C14B72F3BBB1409EA69731E421454EE3-svg</title>
	<style>
		.s0 { fill: #031795 } 
		.s1 { fill: #ff0000 } 
	</style>
	<g id="Layer">
		<path id="Layer" fill-rule="evenodd" class="s0" d="m1310.4 1302.7c-331.5 215.5-1234.6 350.8-1307.1-122.2-33.8-221 257-837.9 347.6-999 54.2-96.4 114.4-189.7 229-180.7 150.7 11.8 266.8 91.5 384 189.4 465.5 389 603.2 945.7 346.5 1112.5zm-131.5-671.9c-64-129.2-151.7-226.6-250.4-329.1-71-73.6-158.4-135.1-254.2-171.1-83.4-31.2-171.2 21.8-204.1 90.2-97.7 202.4-165.3 402.4-248.3 600.1-63.8 152.2-161.1 429.7 76.7 538.9 102.3 47 205.7 50.2 308.3 36.3 123.8-16.7 246.3-43.5 366.7-77.6 126.8-35.9 254.8-109.4 284.5-253.4 4-19.1 6.8-38.7 8.6-58.6 11.2-121.5-35.9-271.1-87.8-375.7zm-37.1 372c-20 77.8-56.4 145.9-183.2 202.5-53.9 24.1-367.2 99.1-482.2 90.6-79.1-5.9-166.3-52.5-186.7-141.9-29.6-129.4 16-268.5 65.8-382.2 50.9-116.5 99.1-234.2 152.1-349.7 30.2-65.6 106.4-227.6 227.1-159.6 181.6 102.3 340.3 451 370.5 527.4 25.6 64.9 53 148.4 36.6 212.9zm-298-478.7c-51.9-73.6-133.2-191.9-206.4-123-29.3 27.6-186.4 399.7-220.6 497.8-25.2 72.2-74.4 244 24.2 274.1 117.1 35.9 302.8-5.7 371.4-28.7 102.4-34.4 390.5-158.7 31.4-620.2z"/>
		<path id="Layer" fill-rule="evenodd" class="s1" d="m883 946.7c-63.3 40.3-267.9 173.9-340.1 128.8-31.5-19.6-17.9-93.8-9.5-123.4 30.3-107.1 62.1-217.9 102.7-324.9 22.5-61.5 96.3-34.6 121.9-11.6 66.6 59.5 117.9 146.3 148.2 212.1 17.5 38 12.9 96.2-23.2 119zm-63.1-124.8c-4.6-14-82-147.2-117.5-118.3-44 35.9-119.8 271.7-65.8 273.8 52.4 2.1 127.9-47.7 173.4-87.9 16.5-14.7 17.4-44.6 9.9-67.6z"/>
	</g>
</svg>