<?xml version="1.0" encoding="utf-8"?>
<!-- Generator: Adobe Illustrator 25.0.1, SVG Export Plug-In . SVG Version: 6.00 Build 0)  -->
<svg version="1.0" id="katman_1" xmlns="http://www.w3.org/2000/svg" xmlns:xlink="http://www.w3.org/1999/xlink" x="0px" y="0px"
	 viewBox="0 0 560 400" style="enable-background:new 0 0 560 400;" xml:space="preserve">
<style type="text/css">
	.st0{fill:#4099CD;}
</style>
<path class="st0" d="M460.8,354c-10,0-20,0-29.9,0c-3.3,0-4-0.9-2.9-4c1.3-3.8,3.5-7.1,6.3-10c1.2-1.3,2.7-1.5,4.4-1.5
	c16.1,0,32.1,0,48.2,0c1.4,0,2.8-0.1,4.1-0.3c5.3-1,8-4.3,7.6-9.3c-0.3-3.5-4.4-6.6-8.9-6.7c-11-0.1-22,0-33,0
	c-3.5,0-6.9-0.3-10.2-1.4c-7.2-2.3-13.6-6-17-13c-5.1-10.5-1.5-28.9,17.2-32.3c3.3-0.6,6.5-0.9,9.8-0.9c18.3,0,36.7,0,55,0
	c3.8,0,4.5,1,3.1,4.5c-1.2,2.9-2.7,5.7-4.8,8.1c-1.8,2.2-4.1,3.1-6.9,3.1c-16.2-0.1-32.4,0-48.6,0c-2.5,0-4.8,0.3-6.9,1.8
	c-2.6,2-4.1,4.7-3.4,8c0.7,3.4,3.1,5.2,6.3,6c1.3,0.4,2.7,0.5,4.1,0.5c12,0,24.1-0.1,36.1,0.1c10.4,0.2,21.6,8.4,23.8,17.6
	c3.5,14.8-4,26.4-19.8,29.1c-2.5,0.4-5,0.4-7.4,0.4C478.4,354,469.6,354,460.8,354L460.8,354z M157,322.3c1.6,5.3,3.7,10,7.9,13.4
	c2.6,2.1,5.7,2.9,9,2.9c16.7,0,33.5,0,50.2,0c3.9,0,4.4,0.8,3.1,4.5c-1.3,3.7-3.7,6.8-6.4,9.6c-0.9,0.9-2,1.4-3.4,1.3
	c-16.9,0-33.8,0.1-50.6-0.1c-4.8,0-8.8-2.6-12.5-5.5c-8.1-6.4-12.3-15.1-13.9-25c-2.2-13.6,0-26.5,8.6-37.7
	c5.5-7.2,12.6-11.2,22.1-11.1c17.7,0.2,35.4,0.1,53.1,0.1c3.8,0,4.5,1,3.1,4.6c-1.1,3.1-2.9,5.7-5,8.2c-1.8,2.1-4.2,2.9-6.8,2.9
	c-12,0-24.1,0-36.1,0c-1.7,0-3.5-0.1-5.2-0.1c-8.5,0-12.7,5.5-15.7,12.3c-1.9,4.2-1.7,4.2,2.9,4.2h55.5c4.4,0,4.9,0.8,3.2,4.9
	c-1.2,2.9-3,5.5-5,8c-1.6,1.9-3.5,2.6-6,2.6c-16.4-0.1-32.9,0-49.3,0C158.8,322.3,158,322.3,157,322.3L157,322.3z M61.6,301
	c-0.5,0.9-0.2,1.7-0.2,2.4c0,15.7,0,31.4,0,47.1c0,3.4,0,3.4-3.5,3.4c-3.6,0-7.2,0-10.8,0c-1.8,0-2.4-0.6-2.4-2.4
	c0-24.8,0-49.6,0-74.4c0-1.9,0.7-2.4,2.5-2.4c3.6,0.1,7.2,0.1,10.8,0c1.1,0,1.9,0.4,2.7,1.1c6.6,6.4,13.1,12.8,19.7,19.2
	c11.3,10.9,22.6,21.8,33.8,32.7c0.2,0.1,0.3,0.3,0.6,0.5c0.5-0.7,0.3-1.5,0.3-2.3c0-16.1,0-32.3,0-48.4c0-2.1,0.5-2.9,2.7-2.8
	c4,0.2,7.9,0.1,11.9,0c2-0.1,2.6,0.8,2.6,2.6c0,5.4,0,10.7,0,16.1v57c0,3.4-0.1,3.5-3.4,3.5c-3.4,0-6.9-0.1-10.3,0
	c-1.3,0-2.2-0.4-3.1-1.3c-9.5-9.2-19-18.4-28.5-27.5c-8.2-7.9-16.4-15.8-24.5-23.7C62.1,301.4,61.9,301.2,61.6,301L61.6,301z
	 M313.1,354c-2.4,0-4.8-0.1-7.3,0c-1.6,0.1-2.7-0.5-3.8-1.7c-6.7-7.7-13.4-15.4-20.1-23.1c-2-2.2-1.9-2.2-3.8,0
	c-6.7,7.7-13.5,15.3-20.2,23c-1.1,1.3-2.2,1.8-4,1.8c-5-0.1-10,0-15,0c-1,0-2.1,0.2-2.6-1.1c-0.5-1.2,0.4-1.8,1-2.5
	c7.6-8.7,15.3-17.4,22.9-26.1c2.4-2.8,4.8-5.5,7.3-8.2c0.9-1,0.9-1.7,0-2.7c-7.7-8.8-15.4-17.7-23.1-26.5c-2.4-2.8-4.8-5.5-7.2-8.3
	c-0.6-0.7-1.3-1.5-0.8-2.5c0.5-1.1,1.6-1.2,2.6-1.2c5.1,0,10.1,0,15.2,0c1.5,0,2.4,0.6,3.4,1.7c6.9,8,14,15.8,20.9,23.8
	c1.1,1.3,1.7,1.3,2.8,0c6.9-8,13.9-15.9,20.9-23.8c1-1.1,2.1-1.7,3.6-1.7c4.9,0.1,9.8,0,14.8,0c1.2,0,2.5-0.1,3.1,1.2
	c0.5,1.2-0.4,2.1-1.1,2.9c-10,11.4-20,22.8-30.1,34.1c-1.2,1.3-1,2.1,0.1,3.2c10,11.2,19.9,22.5,29.8,33.8c0.7,0.9,1.9,1.7,1.3,3
	c-0.6,1.2-1.9,0.9-3,0.9C318.1,354,315.6,354,313.1,354L313.1,354z M332.6,297.9c0-6.6,0-13.2,0-19.8c0-2.8,0.5-3.3,3.3-3.3
	c3.3,0,6.6,0,9.9,0c2.8,0,3.4,0.6,3.4,3.3c0,12.3,0,24.7,0,37c0,6.4,1.1,12.6,5.4,17.7c3.2,3.9,7.2,6.3,12.5,6.2
	c5.9-0.1,11.7-0.2,17.6,0c6.7,0.3,11.2-2.9,14.6-8.4c3.2-5.1,4-10.6,4.1-16.4c0.1-11.9,0-23.8,0-35.7c0-3.7,0.1-3.8,3.7-3.8
	c3.2,0,6.3,0,9.5,0c2.6,0,3.2,0.5,3.2,3c0,13.2,0.5,26.4-0.1,39.6c-0.6,12.8-5,24.2-15.7,32.3c-3.6,2.8-7.8,4.2-12.3,4.2
	c-10.3,0.1-20.7,0.2-31,0c-7.4-0.1-13.1-3.9-17.7-9.4c-7-8.4-10.2-18.2-10.3-29C332.6,309.7,332.6,303.8,332.6,297.9z"/>
<g>
	<path class="st0" d="M388.3,116c4.4,26.4-1.4,54.6-18.4,78C341.2,233.4,290,246.7,247,229c0,0,40.4-8.2,82.4-39.6
		C375.5,155.9,388.3,116,388.3,116z M196.2,183.9c-19-34.1-17.7-77.5,6.8-111.2c33.6-46.2,98.2-56.4,144.3-22.9
		c13,9.4,23.1,21.3,30.2,34.6c0,0-15.6-6.8-28.2-6.5c-12.6,0.4-34.3,4.6-57.9,15.4c-15.6,8-30.2,15.4-55.2,37
		c-1.6,1.3-2.6,0.7-4.3,0.1c-1.7-0.7-5.9-1.9-9.6,1c-3.8,2.9-4.8,7-3.2,11.3c1.1,2.9,0.7,3.7,0,4.7c-0.6,1-7.3,9.4-9.2,11.8
		c-1.8,2.5-12.7,22.9-13.2,23.7C196.3,183.8,196.2,183.9,196.2,183.9L196.2,183.9z"/>
	<path class="st0" d="M288.4,105.1c11.3-3.2,23.5-5.6,35-2.2c5.5,1.6,10.4,5.6,12.2,11.2c2.3,7.2,0.3,14.9-2.4,21.6
		c-3.4,8.1-8.7,15.1-14.4,21.7c-16.4,19.1-37.9,33.7-61.6,42c-7,2.4-14.1,4.7-21.5,5.5c-4.1,0.5-8.3,1.3-12.4,0.5
		c-6.6-0.9-13.6-3.2-17.6-8.8c-4.3-5.9-3.8-13.9-1.6-20.5c2.9-9.3,9.3-16.8,14.6-24.8c1-1.4,2-3,3.7-3.5c2.3,0.3,4.6,1.4,6.9,1.1
		c4.5-0.4,8.2-4.4,8.5-8.9c0.2-2.2-0.7-4.2-1.4-6.2C251.6,121.1,269.2,110.7,288.4,105.1"/>
</g>
</svg>
