<?xml version="1.0" encoding="UTF-8"?>
<svg version="1.1" viewBox="0 0 1190 1190" width="1280" height="1280" xmlns="http://www.w3.org/2000/svg">
<path transform="translate(698,432)" d="m0 0h28l7 15 8 18 5 11 11 25 17 38 13 30 8 18 7 15 9 21 4 8 8 19 7 15 10 23v3h-37l-3-5-8-18-7-15-16-35v-3h-109l-8 18-15 36-12 27-5 13-6 13-5 12-13 30-7 16-4 10-8 19h-39l5-13 16-37 27-63 5-12 11-25 10-24 21-49 10-24 14-32 11-26 5-12 18-42 6-15zm13 58-16 38-6 15-5 12-10 25 3 2 76-1-5-13-4-8-11-25-20-45z" fill="#77C336"/>
<path transform="translate(3,520)" d="m0 0h36l2 1 16 36 7 14 4 10 3 5 4 10 4 9 7 15v2h2l3-9 9-21 7-15 7-17 7-15 8-17 3-8 27 1 9 21 4 9 13 28 7 16 7 15 4 10v2h2l2-8 8-16 3-7 4-9 9-20 4-8 3-7 5-12 4-8 3-7h37l1 2-10 20-3 8-4 8-5 12-4 8-11 24-10 21-3 7-5 11-9 20-5 11-5 10-4 10h-12l-4-9-4-8-9-21-7-15-7-16-7-15-11-25-3-6v-2h-2l-1 6-6 13-8 19-5 10-6 15-7 15-9 21-5 11-3 7h-13l-12-27-7-15-7-16-7-14-5-11-7-16-5-10-11-24-8-17-8-18z" fill="#848389"/>
<path transform="translate(435,433)" d="m0 0h35v99l8-5 11-5 10-3 15-2h11l18 3 12 5 10 6v2l4 2 8 8v2h2v3h2l8 16 5 15 2 14v20l-3 17-5 15-8 13-11 12-3 1-1 3-15 9-16 6-15 3h-32l-27-4-18-5-7-4zm74 114-16 3-16 8v2l-4 1v2h-2l-1 2v91l11 3 16 2h18l12-3 10-5 10-8 7-10 5-12 2-12v-13l-3-16-6-12-3-5-4-4h-2l-1-3-4-1v-2l-11-5-6-2z" fill="#838288"/>
<path transform="translate(346,517)" d="m0 0h9l19 3 13 5 4 2v2l6 2 10 10 2 4h2l7 11 6 16 3 15 1 11v10l-126-1 3 15 4 9v3h2l3 5v2h2l5 6 10 7 16 5 6 1h14l14-2 16-4 18-8 9-6 1 2v31h-3v2l-14 7-13 5-18 4-9 1h-25l-13-2-17-6-7-4v-2l-4-1v-2l-4-1-4-4v-2h-2v-2l-3-1-6-8-2-5h-2l-8-18-3-12-1-9v-19l3-18 6-15 3-7h2l1-4 10-12 8-6h2v-2l12-6 11-4zm-5 29-13 4-8 5v2l-4 2-6 7-4 8-3 11v3h90v-7l-5-15-4-6-8-8-12-5-3-1z" fill="#838288"/>
<path transform="translate(983,521)" d="m0 0h39l5 12 9 19 8 15 5 12 8 16 9 19v2h2l3-9 6-14 8-16 4-10 6-12 4-10 9-18 2-6h38l-2 5-5 12-4 8-11 23-5 12-12 24-3 7-13 28-8 18-6 12-11 23-4 8-4 10h-38l7-16 6-12 9-20 4-8-2-6-16-32-10-21-10-19-9-19-7-14-8-17z" fill="#848389"/>
<path transform="translate(963,433)" d="m0 0h1v257h-33v-256z" fill="#838288"/>
<path transform="translate(889,433)" d="m0 0h1v257h-33v-256z" fill="#838288"/>
</svg>
